<svg version="1.2" xmlns="http://www.w3.org/2000/svg" viewBox="0 0 2743 512" width="2743" height="512"><style>.a{fill:#fd8469}.b{fill:#fc6f58}.c{fill:#fff}</style><path class="a" d="m256 512c-141.6 0-256-114.4-256-256 0-141.6 114.4-256 256-256 141.6 0 256 114.4 256 256 0 141.6-114.4 256-256 256z"/><path class="b" d="m505.4 314.2l-153.4-153.4 14.4 61.8-101.6-101.5-72.3 18.5-51.7 90.5 33.5 129.6 144.5 144.5c92.4-23.3 164.9-96.9 186.6-190z"/><path class="c" d="m264.8 121.1c-2-3.9-5.4-6.8-9.5-8.1l-83.5-27.1c-6.3-2.1-13.2-0.1-17.5 4.9-4.3 5-5.1 12.2-2.1 18.1l19.8 38.8c-30.6 24.3-49.5 61.3-51 100.3-1.5 41.8 16.8 82.6 49.1 109.1 3.8 3.1 8.5 4.7 13.1 4.7 6 0 11.9-2.6 16-7.6 7.2-8.8 6-21.9-2.9-29.1-22.3-18.4-35-46.6-33.9-75.6 0.9-24.1 11.5-47.2 28.9-63.8l17.2 33.8c2.8 5.5 8.5 8.9 14.6 8.9q0.7 0 1.3-0.1c6.6-0.5 12.3-4.9 14.3-11.2l27.1-83.5c1.3-4.1 1-8.6-1-12.5z"/><path class="c" d="m340.9 361.9c7.7-6.1 14.8-13 21.1-20.8 22.6-28 33-63 29.2-98.7-3.3-30.9-17.2-59.9-39.2-81.6-8.2-8-21.3-7.9-29.3 0.2-8 8.1-7.9 21.2 0.2 29.2 15.3 15.1 24.9 35.1 27.2 56.5 2.6 24.7-4.6 49-20.3 68.3q-3.8 4.8-8.2 9l-17.2-33.8c-3.1-5.9-9.3-9.5-15.9-8.9-6.6 0.5-12.3 4.9-14.3 11.2l-27.1 83.5c-1.4 4.1-1 8.6 1 12.5 1.9 3.9 5.4 6.8 9.5 8.1l83.5 27.1q2.5 0.9 5 0.9c4.7 0 9.3-2.1 12.5-5.8 4.3-5 5.1-12.2 2.1-18.1z"/><path  d="m718.5 202.1q0-7.4-6.3-12.6-5.9-5.3-14.3-5.3-16.8 0-27.6 19.3-10.9 18.9-10.9 43 0 18.6 7 33.6 7 14.7 20.3 23.5 13.3 8.7 30.8 8.7 13 0 24.9-4.9 11.9-5.3 19.2-11.2 7.4-6.3 15-11.2 8.1-5.2 14-5.2 7.8 0 13.4 6.3 5.5 5.9 5.5 12.5 0 7.4-4.5 17.2-4.2 9.8-13.6 21-9.5 10.8-22.1 20.3-12.6 9.1-31.5 15.4-18.5 5.9-39.2 5.9-27.3 0-50.7-8-23.1-8.4-40.3-23.5-17.1-15.3-27-38.5-9.7-23-9.7-51.8 0-56.6 33.9-89.5 34-32.9 88.9-32.9 28 0 51.8 9.4 23.8 9.5 37.8 26.3 14 16.8 14 36.7 0 23.1-15.4 42-15.4 18.5-39.9 18.5-14 0-25.2-7.7-11.2-7.7-11.2-22 0-6.7 6.3-18.5 6.6-11.9 6.6-16.8zm216 176.3q-27.3 0-49.4-9.8-21.6-9.7-34.9-29.4-13-19.6-13-45.8 0-39.9 27.3-63.4 27.3-23.4 70-23.4 42.7 0 69.6 23.4 27 23.5 27 63.4 0 39.5-27.6 62.3-27.4 22.7-69 22.7zm18.2-85.4q0-18.1-4.6-31.8-4.5-14-13.2-14-6 0-10.5 7-4.6 7-6.7 17.2-2.1 10.1-2.1 21.7 0 17.8 4.9 31.5 4.9 13.3 14 13.3 9.1 0 13.6-13.3 4.6-13.4 4.6-31.5zm215.6 53.8l-0.3-65q0-19.7-15.4-19.7-7.4 0-12.3 6.4-4.5 5.9-5.2 16v54q0 21.3-8.8 29.3-8.7 8.1-30.8 8.1-20.7 0-28.3-9.4-7.4-9.9-7.4-31.9v-86.1q0-17.9 9.5-28.7 9.8-10.9 25.9-10.9 13.3 0 22.4 3.9 9.1 3.8 13.6 13.3 27.3-17.8 66.5-17.8 24.8 0 35.7 19.6 11.2 19.5 11.2 64.4 0 22-1.1 36-1 13.6-3.5 23.8-2 9.8-7 14.7-4.8 4.9-11.5 7-6.3 2.1-16.5 2.1-19.5 0-28.3-7.4-8.4-7.3-8.4-21.7zm199.2-23.4q10.1 0 12.9-5.6 2.8-6 2.8-21.4l0.3-56.3q0-10.9 3.5-17.5 3.9-6.7 12.7-10.2 8.7-3.5 23.4-3.5 9.4 0 15.4 2.1 6 2.1 10.5 7 4.5 4.6 6.7 14.4 2.1 9.4 3.1 23.1 1 13.3 1 33.9 0 18.9-5.9 34-5.9 15-15.4 24.8-9.1 9.5-21.3 16.1-12.3 6.3-24.5 9.1-12.3 2.5-24.9 2.5-12.3 0-24.5-2.5-12.3-2.8-24.8-9.1-12.3-6.6-21.7-16.1-9.5-9.8-15.5-24.8-5.9-15.1-5.9-34 0-34.3 3.1-50.7 3.2-16.8 10.5-23.1 7.8-6.7 23.2-6.7 21.6 0 30.8 7.7 9 7.4 9 23.5l0.4 56q0 5.6 0 8.4 0 2.4 0.4 6.3 0.3 3.8 1.4 5.6 1 1.7 2.4 3.8 1.7 1.8 4.2 2.5 2.8 0.7 6.7 0.7zm197-45.5q24.2-0.4 26.3-0.4 5.2 0 7.7-6.3 1.7-4.5 1.7-12.6 0-22-13.3-22-4.9 0-9.8 5.2-4.5 5.3-8 15.1-3.5 9.4-4.6 21zm23.8 100.1q-42.7 0-70.7-22.1-27.6-22-27.6-60.1 0-41.4 27.3-65.2 27.6-24.1 71-24.1 41 0 59.9 14.7 19.2 14.3 19.2 39.6 0 4.8-1.4 9.4-1 4.6-3.8 9.1-2.5 4.2-7 8-4.2 3.5-9.9 6.7-5.5 2.8-13.3 4.5-7.7 1.4-16.4 1.4l-49.3 0.4q3.5 11.2 12.6 17.8 9.1 6.3 23.1 6.3 15 0 30.8-3.8 6.6-1.8 14.3-5.6 8.1-3.9 11.6-3.9 5.9 0 9.1 3.5 3.5 3.5 3.5 8.8 0 6.3-5.6 15.4-5.7 8.7-15.8 17.8-9.8 8.8-26.2 15.1-16.5 6.3-35.4 6.3zm187.3-109.9l-0.1 70.4q0 20.9-8.7 29.3-8.8 8.1-31.1 8.1-20.7 0-28-9.5-7.4-9.8-7.4-31.8v-86.1q0-11.9 4.2-20.7 4.2-9 12.3-14 8-4.9 18.9-4.9 26.6 0 35 15.4 20.3-15.4 39.2-15.4 36.7 0 36.7 35 0 14-8.1 22.8-8 8.7-21 8.7-7.6 0-12.5-3.1-4.6-3.2-8.8-6.3-3.8-3.2-9.1-3.2-7.7 0-11.6 5.3zm111 32.9v-41.3q-8.7-0.4-14-2.8-5.2-2.8-7.7-7-2.1-4.2-2.1-10.5 0-20 24.2-21.7v-32.6q0-13.3 19.2-23.8 19.3-10.8 38.2-10.8 11.5 0 15 6.6 3.5 6.7 3.5 20l0.4 40.3h9.4q19.3 0 26.3 5.2 7.3 4.9 7.3 18.2 0 5.6-2.1 9.5-2.1 3.8-7 5.9-4.5 2.1-11.2 3.1-6.6 0.7-16.4 0.7h-6.3v38.5q0 5.6 0.3 9.5 0.7 3.5 1.8 5.6 1 2.1 2.8 2.8 2.1 0.7 4.9 0.7 4.2 0 7-2.8 2.8-3.2 4.2-6.7 1.7-3.8 4.2-6.6 2.8-3.2 6.3-3.2 8 0 12.2 3.9 4.6 3.8 4.6 9.4 0 9.5-3.9 20.3-3.5 10.9-10.5 21-7 10.2-19.6 16.9-12.2 6.6-27.6 6.6-34.7 0-49-17.5-14.4-17.5-14.4-57.4zm262.8 24.5v-65.5q-5.9-10.1-15.4-10.1-9.1 0-14.6 13.3-5.6 13.3-5.6 30.4 0 16.2 5.2 28.7 5.3 12.6 14.7 12.6 9.8 0 15.7-9.4zm-47.5 52.5q-27.7 0-45.9-22.4-18.2-22.8-18.2-62 0-39.8 17.9-63.3 18.2-23.8 46.2-23.8 28.3 0 52.5 19.9 9.4-17.5 30.4-17.5 18.9 0 29.4 8.4 10.5 8.1 10.5 30.1v91q0 21-8.8 29.4-8.7 8.1-30.7 8.1-23.2 0-30.5-13-22.4 15.1-52.8 15.1zm230.9-109.9v70.3q0 21.1-8.7 29.4-8.8 8.1-31.1 8.1-20.7 0-28-9.4-7.4-9.9-7.4-31.9v-86.1q0-11.9 4.2-20.6 4.2-9.1 12.2-14 8.1-5 19-5 26.5 0 35 15.5 20.3-15.5 39.2-15.5 36.7 0 36.7 35 0 14-8.1 22.8-8 8.7-21 8.7-7.6 0-12.5-3.1-4.6-3.2-8.8-6.3-3.8-3.2-9.1-3.2-7.7 0-11.6 5.3zm164.9-20.6v91q0 21-8.7 29.3-8.8 8.1-30.8 8.1-20.7 0-28.4-9.4-7.3-9.9-7.3-31.9v-86.1q0-17.9 9.4-28.7 9.8-10.9 25.9-10.9 18.9 0 29.4 8.4 10.5 8.1 10.5 30.1zm-75.9-87.1q0 14 10.8 20.3 10.9 6.3 27.3 6.3 18.6 0 28.4-6 9.7-5.9 9.7-20.6 0-26.6-38.1-26.6-18.2 0-28.4 7.3-9.7 7.4-9.7 19.3zm202.6 218q-27.3 0-49.4-9.8-21.7-9.8-35-29.4-12.9-19.6-12.9-45.8 0-39.9 27.3-63.4 27.3-23.4 70-23.4 42.7 0 69.7 23.4 26.9 23.5 26.9 63.4 0 39.5-27.7 62.3-27.2 22.7-68.9 22.7zm18.2-85.4q0-18.1-4.5-31.8-4.6-14-13.3-14-6 0-10.5 7-4.6 7-6.7 17.2-2.1 10.1-2.1 21.6 0 17.9 4.9 31.5 4.9 13.4 14 13.4 9.1 0 13.7-13.4 4.5-13.3 4.5-31.5z"/></svg>